<?xml version="1.0" encoding="utf-8"?>
<!-- Generator: Adobe Illustrator 18.1.1, SVG Export Plug-In . SVG Version: 6.00 Build 0)  -->
<!DOCTYPE svg PUBLIC "-//W3C//DTD SVG 1.1//EN" "http://www.w3.org/Graphics/SVG/1.1/DTD/svg11.dtd">
<svg xmlns="http://www.w3.org/2000/svg" xmlns:xlink="http://www.w3.org/1999/xlink" version="1.1" id="Layer_1" x="0px" y="0px" width="22.582px" height="69.947px" viewBox="0 0 22.582 69.947" xml:space="preserve">
<path opacity="0.3" fill="#231F20" d="M17.39,40.153c-0.056-0.584-0.101-1.156-0.144-1.71c-0.016-0.204-0.032-0.408-0.049-0.612  c0.446-0.101,0.786-0.48,0.786-0.956V26.748c0-0.552-0.448-1-1.001-1h-4.691V0.999C12.292,0.447,11.844,0,11.291,0  c-0.553,0-1.001,0.447-1.001,0.999v24.749H5.599c-0.553,0-1.001,0.447-1.001,1v10.127c0,0.476,0.34,0.855,0.786,0.956  c-0.016,0.204-0.033,0.408-0.049,0.612c-0.043,0.555-0.087,1.126-0.144,1.71c-0.191,1.993-1.2,4.555-2.268,7.266  C1.486,51.069,0,54.842,0,58.285c0,7.204,5.861,11.663,11.291,11.663c5.55,0,11.291-4.362,11.291-11.663  c0-2.625-1.38-6.326-2.716-9.906C18.75,45.383,17.594,42.285,17.39,40.153z M6.6,27.747h9.383v8.128H6.6V27.747z M11.291,67.949  c-4.468,0-9.289-3.695-9.289-9.664c0-3.064,1.415-6.658,2.784-10.132c1.122-2.846,2.181-5.536,2.399-7.807  c0.057-0.596,0.103-1.181,0.146-1.747c0.019-0.25,0.039-0.489,0.058-0.723h2.901v25.352c0,0.552,0.448,1,1.001,1  c0.553,0,1.001-0.448,1.001-1V37.874h2.901c0.02,0.234,0.039,0.474,0.058,0.723c0.044,0.566,0.089,1.151,0.146,1.747  c0.23,2.393,1.378,5.472,2.593,8.732c1.273,3.414,2.59,6.943,2.59,9.208C20.58,64.561,15.794,67.949,11.291,67.949z"/>
</svg>
